<svg width="18" height="18" viewBox="0 0 18 18" fill="none" xmlns="http://www.w3.org/2000/svg">
<path d="M11.8345 13.1643L11.8197 13.1633L11.8132 13.1765L10.8702 15.0829C10.8702 15.083 10.8701 15.083 10.8701 15.083C10.8565 15.1098 10.8421 15.1383 10.8269 15.1684C10.5532 15.71 10.0164 16.7723 9.32061 17.4249C8.95354 17.7693 8.54546 17.9964 8.11116 17.9767C7.6777 17.957 7.21113 17.6909 6.72734 17.0329C6.1745 16.0738 5.94113 15.2753 5.94351 14.5923C5.94589 13.9096 6.18384 13.3404 6.57758 12.8397C6.97169 12.3385 7.52187 11.9061 8.14835 11.4981C8.61781 11.1924 9.129 10.9011 9.64853 10.605C9.82243 10.5059 9.99726 10.4063 10.1718 10.3054C10.3439 10.2059 10.5151 10.1056 10.6854 10.0057C11.2038 9.70195 11.7138 9.403 12.2155 9.14793C12.8818 8.80911 13.5313 8.54881 14.1621 8.45819C14.7924 8.36767 15.404 8.4465 15.996 8.78618C16.5881 9.12599 17.1623 9.72788 17.7154 10.6868C18.0426 11.4352 18.0395 11.9729 17.8398 12.3586C17.6398 12.7451 17.2392 12.9853 16.7579 13.1314C15.8455 13.4084 14.6583 13.3428 14.0529 13.3093C14.0193 13.3074 13.9874 13.3057 13.9575 13.3041C13.9575 13.3041 13.9574 13.3041 13.9574 13.3041L11.8345 13.1643ZM4.12849 5.82646L4.14187 5.81948L4.14026 5.80448L3.68193 1.52589C3.5566 0.355916 4.87726 -0.407368 5.82644 0.286232L9.2978 2.82286L9.31001 2.83178L9.32275 2.82366C10.436 2.11401 11.6558 1.39542 12.688 1.06097C13.2042 0.893716 13.6709 0.823419 14.0528 0.896404C14.4331 0.969078 14.7305 1.18397 14.9105 1.5917C15.0488 1.9051 15.0934 2.47468 14.8971 3.21154C14.701 3.94765 14.265 4.84889 13.4452 5.8242C12.5858 6.84656 11.3047 7.95027 9.43641 9.03025C7.56985 10.1092 5.97586 10.6682 4.66256 10.9025C3.40794 11.1264 2.40954 11.0541 1.67419 10.8561C0.938104 10.6579 0.467374 10.3343 0.265366 10.0575C0.00254461 9.69742 -0.0345074 9.33182 0.0930067 8.96555C0.221062 8.59773 0.515608 8.22801 0.918804 7.86387C1.72505 7.13575 2.95757 6.43705 4.12849 5.82646Z" fill="url(#paint0_radial_1_1351)"/>
<path d="M11.8345 13.1643L11.8197 13.1633L11.8132 13.1765L10.8702 15.0829C10.8702 15.083 10.8701 15.083 10.8701 15.083C10.8565 15.1098 10.8421 15.1383 10.8269 15.1684C10.5532 15.71 10.0164 16.7723 9.32061 17.4249C8.95354 17.7693 8.54546 17.9964 8.11116 17.9767C7.6777 17.957 7.21113 17.6909 6.72734 17.0329C6.1745 16.0738 5.94113 15.2753 5.94351 14.5923C5.94589 13.9096 6.18384 13.3404 6.57758 12.8397C6.97169 12.3385 7.52187 11.9061 8.14835 11.4981C8.61781 11.1924 9.129 10.9011 9.64853 10.605C9.82243 10.5059 9.99726 10.4063 10.1718 10.3054C10.3439 10.2059 10.5151 10.1056 10.6854 10.0057C11.2038 9.70195 11.7138 9.403 12.2155 9.14793C12.8818 8.80911 13.5313 8.54881 14.1621 8.45819C14.7924 8.36767 15.404 8.4465 15.996 8.78618C16.5881 9.12599 17.1623 9.72788 17.7154 10.6868C18.0426 11.4352 18.0395 11.9729 17.8398 12.3586C17.6398 12.7451 17.2392 12.9853 16.7579 13.1314C15.8455 13.4084 14.6583 13.3428 14.0529 13.3093C14.0193 13.3074 13.9874 13.3057 13.9575 13.3041C13.9575 13.3041 13.9574 13.3041 13.9574 13.3041L11.8345 13.1643ZM4.12849 5.82646L4.14187 5.81948L4.14026 5.80448L3.68193 1.52589C3.5566 0.355916 4.87726 -0.407368 5.82644 0.286232L9.2978 2.82286L9.31001 2.83178L9.32275 2.82366C10.436 2.11401 11.6558 1.39542 12.688 1.06097C13.2042 0.893716 13.6709 0.823419 14.0528 0.896404C14.4331 0.969078 14.7305 1.18397 14.9105 1.5917C15.0488 1.9051 15.0934 2.47468 14.8971 3.21154C14.701 3.94765 14.265 4.84889 13.4452 5.8242C12.5858 6.84656 11.3047 7.95027 9.43641 9.03025C7.56985 10.1092 5.97586 10.6682 4.66256 10.9025C3.40794 11.1264 2.40954 11.0541 1.67419 10.8561C0.938104 10.6579 0.467374 10.3343 0.265366 10.0575C0.00254461 9.69742 -0.0345074 9.33182 0.0930067 8.96555C0.221062 8.59773 0.515608 8.22801 0.918804 7.86387C1.72505 7.13575 2.95757 6.43705 4.12849 5.82646Z" stroke="url(#paint1_radial_1_1351)" stroke-width="0.044256" style="mix-blend-mode:soft-light"/>
<defs>
<radialGradient id="paint0_radial_1_1351" cx="0" cy="0" r="1" gradientUnits="userSpaceOnUse" gradientTransform="translate(9 -1.17078e-06) rotate(106.187) scale(19.6614)">
<stop stop-color="#3DC5FF"/>
<stop offset="1" stop-color="#0032E1"/>
</radialGradient>
<radialGradient id="paint1_radial_1_1351" cx="0" cy="0" r="1" gradientUnits="userSpaceOnUse" gradientTransform="translate(11.0199 3.8342) rotate(166.28) scale(9.49109 9.30322)">
<stop stop-color="white"/>
<stop offset="1" stop-color="white" stop-opacity="0.35"/>
</radialGradient>
</defs>
</svg>
